<?xml version="1.0" encoding="utf-8"?>
<!-- Generator: Adobe Illustrator 19.2.1, SVG Export Plug-In . SVG Version: 6.00 Build 0)  -->
<svg version="1.1" id="Layer_1" xmlns="http://www.w3.org/2000/svg" xmlns:xlink="http://www.w3.org/1999/xlink" x="0px" y="0px"
	 viewBox="0 0 157 46.1" style="enable-background:new 0 0 157 46.1;" xml:space="preserve">
<style type="text/css">
	.st0{fill:#282828;}
	.st1{fill:#FFFFFF;}
	.st2{fill:#F47D41;}
</style>
<rect x="-9" y="-9.1" class="st0" width="175" height="64.1"/>
<g>
	<g>
		<path class="st1" d="M84.9,19c0-1.4-0.3-2.4-0.8-2.9c-0.5-0.5-1.5-0.7-3-0.7h-9.1c-1.5,0-2.5,0.2-3,0.7c-0.5,0.5-0.8,1.5-0.8,2.9
			V27c0,1.4,0.3,2.4,0.8,2.9c0.5,0.5,1.5,0.7,3,0.7h9.1c1.5,0,2.5-0.2,3-0.7c0.5-0.5,0.8-1.5,0.8-2.9v-2H81l-1.6,2.7h-5.6l-2.8-4.8
			l2.8-4.8l5.6,0l1.5,2.6h3.9V19z"/>
	</g>
	<path class="st1" d="M67,25v2c0,1.4-0.3,2.4-0.8,2.9c-0.5,0.5-1.5,0.7-3,0.7h-9.1c-1.5,0-2.5-0.2-3-0.7c-0.5-0.5-0.8-1.5-0.8-2.9
		V19c0-1.4,0.3-2.4,0.8-2.9c0.5-0.5,1.5-0.7,3-0.7h9.1c1.5,0,2.5,0.2,3,0.7c0.5,0.5,0.8,1.5,0.8,2.9v1.7V25z M53.3,22.9l2.8,4.8h5.6
		l2.8-4.8l-2.8-4.8l-5.6,0L53.3,22.9z"/>
	<path class="st1" d="M102.7,25v2c0,1.4-0.3,2.4-0.8,2.9c-0.5,0.5-1.5,0.7-3,0.7h-9.1c-1.5,0-2.5-0.2-3-0.7C86.2,29.4,86,28.4,86,27
		V19c0-1.4,0.3-2.4,0.8-2.9c0.5-0.5,1.5-0.7,3-0.7h9.1c1.5,0,2.5,0.2,3,0.7c0.5,0.5,0.8,1.5,0.8,2.9v1.7V25z M88.9,22.9l2.8,4.8h5.6
		l2.8-4.8l-2.8-4.8l-5.6,0L88.9,22.9z"/>
	<polygon class="st2" points="73.6,22.9 75.1,25.6 78.2,25.6 79.8,22.9 78.2,20.2 75.1,20.2 	"/>
	<path class="st1" d="M15.5,30.6V15.3h12.6c2.7,0,3.9,1.2,3.9,3.1v3.6c0,1.7-1,3.1-3.9,3.1h-8.4v5.6H15.5z M26.4,18.7h-6.7v2.9h6.7
		c0.5,0,0.8,0,1-0.1c0.2-0.1,0.4-0.4,0.4-0.7v-1.2c0-0.4-0.1-0.6-0.4-0.7C27.2,18.8,26.9,18.7,26.4,18.7z"/>
	<path class="st1" d="M32.8,30.6V15.3h12.6c2.7,0,3.9,1.2,3.9,3.1v3.6c0,1.7-1,3.1-3.9,3.1h-0.5l6.7,5.6h-6.2L39.4,25H37v5.6H32.8z
		 M43.8,18.7H37v2.9h6.7c0.5,0,0.8,0,1-0.1c0.2-0.1,0.4-0.4,0.4-0.7v-1.2c0-0.4-0.1-0.6-0.4-0.7C44.5,18.8,44.2,18.7,43.8,18.7z"/>
	<path class="st1" d="M103.9,30.6V15.3h12.6c2.7,0,3.9,1.2,3.9,3.1v3.6c0,1.7-1,3.1-3.9,3.1h-0.5l6.7,5.6h-6.2l-5.9-5.6h-2.4v5.6
		H103.9z M114.8,18.7h-6.7v2.9h6.7c0.5,0,0.8,0,1-0.1c0.2-0.1,0.4-0.4,0.4-0.7v-1.2c0-0.4-0.1-0.6-0.4-0.7
		C115.6,18.8,115.3,18.7,114.8,18.7z"/>
	<path class="st1" d="M121.4,30.6V15.3H137v3.4h-11.4V21h6.6v3.4h-6.6V27h11.5v3.6H121.4z"/>
	<g>
		<path class="st1" d="M141.5,17c0,0.9-0.7,1.7-1.7,1.7c-1,0-1.7-0.7-1.7-1.7c0-0.9,0.8-1.7,1.7-1.7C140.7,15.3,141.5,16.1,141.5,17
			z M138.5,17c0,0.7,0.5,1.3,1.3,1.3c0.7,0,1.3-0.6,1.3-1.3c0-0.7-0.5-1.3-1.3-1.3C139,15.6,138.5,16.2,138.5,17z M139.5,17.9h-0.4
			v-1.7c0.2,0,0.4-0.1,0.6-0.1c0.3,0,0.5,0.1,0.6,0.1c0.1,0.1,0.2,0.2,0.2,0.4c0,0.2-0.1,0.3-0.3,0.4v0c0.2,0.1,0.3,0.2,0.3,0.4
			c0.1,0.3,0.1,0.4,0.1,0.4h-0.4c-0.1-0.1-0.1-0.2-0.1-0.4c0-0.2-0.1-0.3-0.3-0.3h-0.2V17.9z M139.5,16.9h0.2c0.2,0,0.4-0.1,0.4-0.2
			c0-0.2-0.1-0.3-0.4-0.3c-0.1,0-0.2,0-0.2,0V16.9z"/>
	</g>
</g>
</svg>
